<svg width="20" height="20" viewBox="0 0 20 20" fill="none" xmlns="http://www.w3.org/2000/svg">
<path fill-rule="evenodd" clip-rule="evenodd" d="M9.80081 17.3782C7.99198 16.2649 6.30924 14.9547 4.78272 13.471C3.70951 12.4024 2.89249 11.0998 2.39423 9.66284C1.4976 6.87526 2.54492 3.68403 5.47591 2.7396C7.01632 2.24369 8.69865 2.52713 9.99673 3.50124C11.2952 2.52832 12.9771 2.24499 14.5176 2.7396C17.4486 3.68403 18.5034 6.87526 17.6067 9.66284C17.1085 11.0998 16.2915 12.4024 15.2182 13.471C13.6917 14.9547 12.009 16.2649 10.2001 17.3782L10.0042 17.5L9.80081 17.3782Z" stroke="#292D32" stroke-width="1.5" stroke-linecap="round" stroke-linejoin="round"/>
<path d="M13.1161 5.87744C14.0038 6.16102 14.6346 6.95802 14.7134 7.89576" stroke="#8F959E" stroke-width="1.5" stroke-linecap="round" stroke-linejoin="round"/>
</svg>
