<svg width="21" height="19" viewBox="0 0 21 19" fill="none" xmlns="http://www.w3.org/2000/svg">
<path fill-rule="evenodd" clip-rule="evenodd" d="M20.701 15.3834L12.5025 1.14563C12.0857 0.435858 11.3241 -6.17504e-05 10.501 -6.17504e-05C9.67785 -6.17504e-05 8.91628 0.435858 8.49941 1.14563L0.300977 15.3834C-0.100364 16.0704 -0.100364 16.9203 0.300977 17.6072C0.712763 18.3217 1.47791 18.7586 2.30254 18.75H18.6994C19.5234 18.7579 20.2876 18.3211 20.6991 17.6072C21.101 16.9206 21.1017 16.0707 20.701 15.3834ZM19.4007 16.8563C19.2551 17.1045 18.9871 17.255 18.6994 17.25H2.30254C2.01484 17.255 1.74681 17.1045 1.60129 16.8563C1.46944 16.633 1.46944 16.3557 1.60129 16.1325L9.79973 1.89469C9.94804 1.64788 10.2149 1.4969 10.5029 1.4969C10.7908 1.4969 11.0577 1.64788 11.206 1.89469L19.4044 16.1325C19.5351 16.3564 19.5337 16.6337 19.4007 16.8563ZM9.75098 11.25V7.5C9.75098 7.08579 10.0868 6.75 10.501 6.75C10.9152 6.75 11.251 7.08579 11.251 7.5V11.25C11.251 11.6642 10.9152 12 10.501 12C10.0868 12 9.75098 11.6642 9.75098 11.25ZM11.626 14.625C11.626 15.2463 11.1223 15.75 10.501 15.75C9.87966 15.75 9.37598 15.2463 9.37598 14.625C9.37598 14.0037 9.87966 13.5 10.501 13.5C11.1223 13.5 11.626 14.0037 11.626 14.625Z" fill="#121417"/>
</svg>
