<svg width="24" height="24" viewBox="0 0 24 24" fill="none" xmlns="http://www.w3.org/2000/svg">
<path d="M17 10.75C16.0335 10.75 15.25 11.5335 15.25 12.5V18.5C15.25 19.4665 16.0335 20.25 17 20.25H19C20.5188 20.25 21.75 19.0188 21.75 17.5V13.5C21.75 11.9812 20.5188 10.75 19 10.75H17Z" fill="#005FF9"/>
<path d="M7 10.75C7.9665 10.75 8.75 11.5335 8.75 12.5V18.5C8.75 19.4665 7.9665 20.25 7 20.25H5C3.48122 20.25 2.25 19.0188 2.25 17.5V13.5C2.25 11.9812 3.48122 10.75 5 10.75H7Z" fill="#005FF9"/>
<path fill-rule="evenodd" clip-rule="evenodd" d="M5.27637 10.4727C5.27637 6.7593 8.28664 3.74902 12 3.74902C15.7134 3.74902 18.7236 6.7593 18.7236 10.4727V11.4986C18.7236 11.9128 18.3878 12.2486 17.9736 12.2486C17.5594 12.2486 17.2236 11.9128 17.2236 11.4986V10.4727C17.2236 7.58772 14.8849 5.24902 12 5.24902C9.11507 5.24902 6.77637 7.58772 6.77637 10.4727V11.4986C6.77637 11.9128 6.44058 12.2486 6.02637 12.2486C5.61215 12.2486 5.27637 11.9128 5.27637 11.4986V10.4727Z" fill="#005FF9"/>
</svg>
