<svg width="20" height="21" viewBox="0 0 20 21" fill="none" xmlns="http://www.w3.org/2000/svg">
<path d="M5.48626 5.07041C5.48626 2.68434 7.42055 0.750039 9.8066 0.750039C10.9556 0.745169 12.0592 1.1982 12.8734 2.00896C13.6876 2.81971 14.1453 3.9214 14.1453 5.07041M6.84095 9.57382H6.88672M12.6716 9.57382H12.7174M5.62356 19.972H13.9714C17.0377 19.972 19.3901 18.8644 18.722 14.4068L17.9439 8.36559C17.532 6.14133 16.1133 5.29007 14.8684 5.29007H4.68992C3.42676 5.29007 2.09038 6.20541 1.6144 8.36559L0.83637 14.4068C0.26887 18.361 2.5572 19.972 5.62356 19.972Z" stroke="#8F959E" stroke-width="1.5" stroke-linecap="round" stroke-linejoin="round"/>
</svg>
