<svg width="24" height="24" viewBox="0 0 24 24" fill="none" xmlns="http://www.w3.org/2000/svg">
<path fill-rule="evenodd" clip-rule="evenodd" d="M7.69684 4.70156C8.02312 4.11425 8.64217 3.75 9.31403 3.75H14.6862C15.3581 3.75 15.9771 4.11425 16.3034 4.70156L17.5732 6.9872C17.888 7.55375 17.4783 8.25 16.8302 8.25H7.17007C6.52196 8.25 6.11229 7.55375 6.42704 6.9872L7.69684 4.70156ZM9.31403 5.25C9.18692 5.25 9.0698 5.31891 9.00807 5.43002L8.27475 6.75H15.7255L14.9922 5.43002C14.9304 5.31891 14.8133 5.25 14.6862 5.25H9.31403Z" fill="#005FF9"/>
<path fill-rule="evenodd" clip-rule="evenodd" d="M4.50146 6.75C3.53497 6.75 2.75146 7.5335 2.75146 8.5V18.5C2.75146 19.4665 3.53497 20.25 4.50146 20.25H19.4985C20.465 20.25 21.2485 19.4665 21.2485 18.5V8.5C21.2485 7.5335 20.465 6.75 19.4985 6.75H4.50146ZM15 13.5C15 15.1568 13.6569 16.5 12 16.5C10.3431 16.5 9 15.1568 9 13.5C9 11.8431 10.3431 10.5 12 10.5C13.6569 10.5 15 11.8431 15 13.5ZM5.81201 9.75C5.3978 9.75 5.06201 10.0858 5.06201 10.5C5.06201 10.9142 5.3978 11.25 5.81201 11.25H7.31201C7.72622 11.25 8.06201 10.9142 8.06201 10.5C8.06201 10.0858 7.72623 9.75 7.31201 9.75L5.81201 9.75Z" fill="#005FF9"/>
</svg>
