<svg width="24" height="24" viewBox="0 0 24 24" fill="none" xmlns="http://www.w3.org/2000/svg">
<path fill-rule="evenodd" clip-rule="evenodd" d="M13.7305 2.25L5.12451 2.25C4.15801 2.25 3.37451 3.0335 3.37451 4V20.0009C3.37451 20.9674 4.15801 21.7509 5.12451 21.7509H18.8753C19.8418 21.7509 20.6253 20.9674 20.6253 20.0009V9.2923H16.4805C14.9617 9.2923 13.7305 8.06108 13.7305 6.5423V2.25ZM7.75 11.5C7.75 11.0858 8.08579 10.75 8.5 10.75H15.5C15.9142 10.75 16.25 11.0858 16.25 11.5C16.25 11.9142 15.9142 12.25 15.5 12.25H8.5C8.08579 12.25 7.75 11.9142 7.75 11.5ZM8.5 13.75C8.08579 13.75 7.75 14.0858 7.75 14.5C7.75 14.9142 8.08579 15.25 8.5 15.25H15.5C15.9142 15.25 16.25 14.9142 16.25 14.5C16.25 14.0858 15.9142 13.75 15.5 13.75H8.5ZM7.75 17.5C7.75 17.0858 8.08579 16.75 8.5 16.75H11.5C11.9142 16.75 12.25 17.0858 12.25 17.5C12.25 17.9142 11.9142 18.25 11.5 18.25H8.5C8.08579 18.25 7.75 17.9142 7.75 17.5Z" fill="#005FF9"/>
<path d="M20.4614 7.7923C20.3731 7.60284 20.2506 7.4289 20.0981 7.27993L15.4587 2.74813C15.3876 2.67867 15.3112 2.61586 15.2305 2.56009V6.5423C15.2305 7.23265 15.7901 7.7923 16.4805 7.7923H20.4614Z" fill="#005FF9"/>
</svg>
