<svg width="24" height="24" viewBox="0 0 24 24" fill="none" xmlns="http://www.w3.org/2000/svg">
<path d="M2.25003 18.0137C2.25741 19.5262 3.48579 20.75 5 20.75H19.0017L18.7745 20.5228L9.88874 11.1144C9.79418 11.0142 9.63647 11.0094 9.536 11.1036L3.52168 16.7421L2.25003 18.0137Z" fill="#005FF9"/>
<path d="M20.6058 20.2327C21.2988 19.7334 21.75 18.9194 21.75 18V16.3358L18.7154 13.3012C18.624 13.2097 18.4779 13.2031 18.3786 13.2859L15.9301 15.3265L19.8503 19.4773L20.6058 20.2327Z" fill="#005FF9"/>
<path d="M14.75 8.625C14.75 8.21079 15.0858 7.875 15.5 7.875C15.9142 7.875 16.25 8.21079 16.25 8.625C16.25 9.03921 15.9142 9.375 15.5 9.375C15.0858 9.375 14.75 9.03921 14.75 8.625Z" fill="#005FF9"/>
<path fill-rule="evenodd" clip-rule="evenodd" d="M21.75 6V14.2145L19.7762 12.2406C19.1361 11.6004 18.1136 11.5541 17.4182 12.1336L14.8982 14.2339L10.9793 10.0844C10.3174 9.3836 9.21335 9.35002 8.51009 10.0093L2.47812 15.6643L2.25 15.8924V6C2.25 4.48122 3.48122 3.25 5 3.25H19C20.5188 3.25 21.75 4.48122 21.75 6ZM15.5 6.375C14.2574 6.375 13.25 7.38236 13.25 8.625C13.25 9.86764 14.2574 10.875 15.5 10.875C16.7426 10.875 17.75 9.86764 17.75 8.625C17.75 7.38236 16.7426 6.375 15.5 6.375Z" fill="#005FF9"/>
</svg>
