<svg width="24" height="24" viewBox="0 0 24 24" fill="none" xmlns="http://www.w3.org/2000/svg">
<path d="M12 2.08984C7.69809 2.08984 4.25 5.68018 4.25 10.0598C4.25 12.2699 5.12591 14.2747 6.54429 15.7205C6.55774 15.7343 6.56732 15.7457 6.57405 15.7548L10.5949 21.1996C11.293 22.145 12.706 22.1472 13.4071 21.204L17.5767 15.5945C18.9237 14.1593 19.75 12.2064 19.75 10.0598C19.75 5.68018 16.3019 2.08984 12 2.08984Z" fill="#005FF9"/>
<path d="M15 9.83984C15 11.4967 13.6569 12.8398 12 12.8398C10.3431 12.8398 9 11.4967 9 9.83984C9 8.18299 10.3431 6.83984 12 6.83984C13.6569 6.83984 15 8.18299 15 9.83984Z" fill="white"/>
</svg>
