<svg width="24" height="24" viewBox="0 0 24 24" fill="none" xmlns="http://www.w3.org/2000/svg">
<path fill-rule="evenodd" clip-rule="evenodd" d="M4.60129 3.82845C3.56588 3.36832 2.50152 4.41273 2.94198 5.45666L5.66159 11.9025C5.68781 11.9646 5.68781 12.0347 5.66159 12.0968L2.94198 18.5426C2.50152 19.5866 3.56588 20.631 4.60129 20.1708L20.418 13.1419C21.4079 12.7021 21.4079 11.2972 20.418 10.8574L4.60129 3.82845ZM9.6416 11.2495C9.22739 11.2495 8.8916 11.5853 8.8916 11.9995C8.8916 12.4137 9.22739 12.7495 9.6416 12.7495L12.6416 12.7495C13.0558 12.7495 13.3916 12.4137 13.3916 11.9995C13.3916 11.5853 13.0558 11.2495 12.6416 11.2495L9.6416 11.2495Z" fill="#F3F3F7"/>
</svg>
