<svg width="20" height="20" viewBox="0 0 20 20" fill="none" xmlns="http://www.w3.org/2000/svg">
<path d="M16.75 0C18.2688 0 19.5 1.23122 19.5 2.75V16.75C19.5 18.2688 18.2688 19.5 16.75 19.5H2.75C1.23122 19.5 0 18.2688 0 16.75V2.75C0 1.23122 1.23122 0 2.75 0H16.75ZM8.59863 10.707C8.30574 10.4141 7.83098 10.4141 7.53809 10.707L5.85547 12.3887L5.28027 11.8135C4.98738 11.5206 4.51262 11.5206 4.21973 11.8135C3.927 12.1064 3.92689 12.5812 4.21973 12.874L5.31836 13.9727C5.61516 14.2695 6.09676 14.2695 6.39355 13.9727L8.59863 11.7676C8.89153 11.4747 8.89153 10.9999 8.59863 10.707ZM10.75 11.5928C10.3358 11.5928 10 11.9286 10 12.3428C10 12.757 10.3358 13.0928 10.75 13.0928H14.75C15.1642 13.0928 15.5 12.757 15.5 12.3428C15.5 11.9286 15.1642 11.5928 14.75 11.5928H10.75ZM8.59863 5.52148C8.30574 5.22859 7.83098 5.22859 7.53809 5.52148L5.85547 7.20312L5.28027 6.62793C4.98738 6.33504 4.51262 6.33504 4.21973 6.62793C3.92724 6.92086 3.92697 7.39572 4.21973 7.68848L5.31836 8.78711C5.6151 9.08358 6.09682 9.08358 6.39355 8.78711L8.59863 6.58203C8.89144 6.28922 8.89128 5.8144 8.59863 5.52148ZM10.75 6.40625C10.3358 6.40625 10 6.74204 10 7.15625C10 7.57046 10.3358 7.90625 10.75 7.90625H14.75C15.1642 7.90625 15.5 7.57046 15.5 7.15625C15.5 6.74204 15.1642 6.40625 14.75 6.40625H10.75Z" fill="#005FF9"/>
</svg>
